<svg version="1.1" id="Layer_1" xmlns="http://www.w3.org/2000/svg" xmlns:xlink="http://www.w3.org/1999/xlink" x="0px" y="0px"
	 width="100%" viewBox="0 0 688 656" enable-background="new 0 0 688 656" xml:space="preserve">
		<path fill="#3E2C24" opacity="1.000000" stroke="none" 
		d="
	M689.000000,390.531433 
		C680.432800,395.971069 671.224243,398.251068 661.335754,397.316528 
		C628.207275,394.185608 594.898132,392.051239 563.637207,378.895020 
		C558.156799,376.588623 555.680908,377.678436 553.458557,383.089478 
		C544.884033,403.966949 531.464294,422.091095 520.589050,441.651978 
		C512.421143,456.343353 500.750610,468.071442 490.326935,480.908051 
		C477.255585,497.005249 461.792175,510.613068 446.092712,523.819946 
		C426.942505,539.929688 405.190247,552.102600 379.870972,554.940552 
		C365.746185,556.523743 351.661926,558.667175 337.419067,559.616333 
		C323.259552,560.559998 309.072601,561.035889 295.039764,560.117432 
		C265.991913,558.216492 237.810669,552.627014 213.867157,534.175110 
		C211.028656,531.987671 208.505463,530.028564 203.794098,532.723145 
		C185.156296,543.382629 168.340042,556.726746 150.169540,568.035706 
		C149.746872,568.298767 149.399872,568.695557 148.960938,568.918457 
		C136.266953,575.364563 127.407768,584.618225 124.389473,599.217529 
		C122.771477,607.043762 118.098007,614.294739 112.959282,619.976929 
		C110.125572,623.110229 106.084084,626.567078 101.984657,629.076416 
		C101.678604,629.263855 101.048668,628.922180 100.450516,628.802795 
		C99.703308,618.384583 102.254791,608.524048 105.343002,598.744873 
		C101.753006,608.179016 96.574150,616.645874 90.606560,624.655518 
		C89.730171,625.831848 88.485016,626.768677 87.298470,627.668640 
		C86.141068,628.546509 84.726944,628.590881 83.563171,627.766418 
		C82.436806,626.968567 82.922302,625.736572 83.085030,624.561218 
		C83.836662,619.132141 85.789787,614.068909 87.362206,608.605774 
		C79.286560,618.915466 73.150475,630.724304 63.423862,639.388000 
		C60.841499,637.637329 62.503201,635.223267 60.220268,633.348999 
		C52.074184,641.879456 42.801041,649.248962 33.210564,656.744141 
		C30.958334,657.000000 28.916666,657.000000 26.437500,657.000000 
		C33.940929,648.391296 40.563911,638.578613 50.693325,631.391541 
		C47.793922,629.713257 46.191296,632.324341 43.294174,630.998779 
		C49.628159,624.052185 58.022835,620.339783 65.227615,613.861877 
		C50.779598,614.789917 36.931507,614.788330 23.183083,610.986084 
		C31.407103,606.677734 40.428040,605.807617 49.374691,604.644348 
		C58.423218,603.467896 67.555878,603.743958 76.918671,603.362244 
		C75.885628,601.416382 74.470390,600.665771 72.812576,600.402222 
		C71.376282,600.173950 70.171211,599.729919 69.985481,598.123962 
		C69.824379,596.731079 70.999893,596.236145 71.919800,595.501099 
		C75.614502,592.548706 79.935249,591.056763 85.257500,590.039551 
		C82.665283,588.552429 80.762909,587.461121 78.610985,586.226562 
		C82.387871,579.999573 89.944504,582.039124 94.904510,578.301086 
		C92.411980,575.194641 87.819473,576.570435 85.978889,573.200012 
		C85.990181,570.573914 88.306122,570.556824 89.870575,570.127197 
		C101.614326,566.902161 113.410568,565.912048 124.982391,570.701721 
		C127.325699,571.671692 128.561005,570.331543 129.904022,569.440613 
		C148.588776,557.045227 167.226959,544.579163 185.818497,532.044250 
		C190.168549,529.111267 195.310623,527.125488 198.328125,522.063538 
		C195.047028,517.132935 190.158752,513.551575 186.542587,508.792633 
		C172.324005,490.080994 161.827927,469.608490 155.611740,446.912415 
		C150.372650,427.783875 147.534073,408.411652 147.512054,388.516998 
		C147.497559,375.425201 147.984634,362.382568 148.680313,349.329163 
		C148.722687,348.534180 148.685806,347.734985 148.685806,346.742188 
		C140.222137,345.961517 131.988144,345.401489 123.806793,344.408112 
		C103.351845,341.924438 83.374687,337.286530 63.905727,330.514252 
		C51.066536,326.048126 37.889481,322.502991 25.663485,316.365112 
		C17.137215,312.084595 17.423119,311.456940 22.638638,303.669861 
		C25.906763,298.790375 28.263273,293.198700 31.579554,288.222778 
		C41.270298,273.682190 52.537327,260.442444 64.186226,247.443863 
		C76.910019,233.245850 91.246956,221.071213 107.132401,210.656662 
		C116.919930,204.239929 127.313789,199.041229 138.915436,196.840591 
		C142.019913,196.251724 142.509064,195.350418 141.903549,192.256348 
		C138.046082,172.545425 138.352219,152.997955 145.005951,133.808548 
		C149.258209,121.544945 155.961929,110.825256 164.586075,101.132584 
		C172.554001,92.177429 181.599564,84.964401 193.044342,81.064873 
		C194.914963,80.427498 196.855698,79.812416 198.805908,79.626534 
		C204.679977,79.066650 210.022644,77.780930 213.592606,72.376472 
		C215.031494,70.198189 217.581177,69.399132 220.240723,69.667603 
		C223.050537,69.951241 224.630722,68.727127 225.275726,66.044579 
		C230.046982,46.201492 243.825333,33.982185 260.738007,24.587046 
		C274.060486,17.186262 288.293671,11.879222 303.407471,10.000652 
		C322.645874,7.609416 340.478546,11.481756 355.310852,24.982744 
		C356.273438,25.858944 357.021515,27.005966 357.734894,28.113605 
		C359.254364,30.472948 360.998932,30.847187 363.652435,29.695024 
		C386.309998,19.857079 419.365875,26.437109 435.109467,45.828842 
		C437.082336,48.258884 439.815094,50.063671 440.674744,53.171268 
		C460.833405,48.372108 465.695709,50.670975 475.414917,69.592415 
		C478.744629,68.475128 482.167938,67.386597 485.549652,66.181351 
		C500.955170,60.690792 516.982666,58.727234 533.109680,59.819199 
		C562.055176,61.779118 587.784363,72.043724 608.251587,93.174652 
		C624.329407,109.773888 633.831055,129.525818 635.469299,152.991669 
		C637.065369,175.853439 631.117065,195.882874 615.380737,212.742233 
		C613.489502,214.768402 613.222107,216.504059 615.519470,218.106506 
		C623.890381,223.945190 623.492737,232.095230 620.997131,240.388321 
		C620.088257,243.408783 620.286926,245.072937 622.428650,247.313492 
		C643.531067,269.389130 659.508728,294.828064 671.915039,322.662262 
		C677.205811,334.532440 681.360168,346.734222 684.826843,359.226227 
		C685.705566,362.392639 687.379089,365.338470 688.843689,368.692810 
		C689.000000,376.020966 689.000000,383.041901 689.000000,390.531433 
	M266.604126,38.226810 
		C252.267761,45.827175 241.391678,56.354214 236.711380,72.480408 
		C234.226334,81.042717 233.837006,81.053047 225.473755,81.509544 
		C225.864227,84.828117 229.257370,86.059738 230.416153,88.750359 
		C231.085617,90.304855 231.872070,91.876236 230.428207,93.376007 
		C229.152817,94.700798 227.747650,94.140610 226.289307,93.557640 
		C223.833893,92.576088 221.414352,91.579895 218.681503,91.345222 
		C198.634323,89.623810 183.581390,98.724640 171.746841,113.728142 
		C158.863327,130.061493 153.105179,148.841141 153.208679,169.807709 
		C153.335022,195.401443 163.057175,216.166428 182.074326,232.889450 
		C182.805313,233.532227 183.647003,234.165863 184.549728,234.477707 
		C190.564362,236.555466 192.040833,238.575439 188.594696,244.106873 
		C183.806625,251.792236 182.135544,260.471954 179.625229,268.723694 
		C167.257050,309.379761 160.323227,350.874207 162.210297,393.620514 
		C162.872040,408.610077 164.900238,423.294922 168.403488,437.826630 
		C174.979111,465.102844 187.857208,488.863495 207.791809,508.747864 
		C211.129929,512.077576 215.576645,514.018982 218.633408,517.489929 
		C225.258820,525.012817 233.604385,529.179443 243.012299,532.160950 
		C263.701752,538.717712 284.765320,542.283142 306.490845,542.742920 
		C328.803162,543.215027 350.954651,541.043213 373.126190,539.404358 
		C379.794617,538.911377 386.736237,539.569458 393.253326,536.864075 
		C413.811340,528.329834 431.381989,515.420654 447.525635,500.347778 
		C457.386932,491.140594 466.078796,480.854553 474.971283,470.754669 
		C480.666626,464.286041 486.311707,457.770660 491.861237,451.176819 
		C498.737183,443.006927 503.512634,433.432373 509.306976,424.540619 
		C518.279419,410.771942 526.557617,396.578003 534.065796,381.937134 
		C535.759033,378.635406 535.346313,376.838013 531.914917,375.422729 
		C526.488159,373.184479 521.801392,369.645721 517.284851,366.019714 
		C512.216797,361.950897 507.494598,357.339325 505.287720,350.998596 
		C504.207855,347.896088 503.601532,344.395020 506.464294,341.686462 
		C508.876099,339.404602 511.731659,338.948914 514.744324,340.523651 
		C519.602295,343.062958 524.502319,345.531921 529.267212,348.237152 
		C547.821594,358.771210 567.095337,367.552063 587.880737,372.742767 
		C603.481506,376.638702 619.175476,379.671570 635.287415,380.919983 
		C644.784912,381.655884 654.225281,381.501648 663.687256,381.548798 
		C667.466431,381.567627 671.216003,380.515564 674.656128,378.636688 
		C676.336121,377.719147 677.185669,376.734070 676.649292,374.705475 
		C674.745605,367.505615 673.226624,360.191711 671.043457,353.080200 
		C662.832764,326.334778 649.919800,301.916382 633.644775,279.254425 
		C622.664246,263.964722 610.322937,249.965927 595.392273,238.259369 
		C583.045837,228.578995 570.050720,220.078186 555.947937,213.248077 
		C553.785278,212.200684 552.388733,210.634491 552.849182,208.161804 
		C553.315613,205.657272 555.197510,204.796280 557.617920,204.659012 
		C560.895386,204.473099 563.867554,205.468018 566.739563,206.817261 
		C579.119690,212.633194 590.704956,219.717728 601.590027,228.039734 
		C604.836426,230.521774 607.346313,234.480209 612.107300,234.954315 
		C613.688538,229.623810 612.010254,225.910675 607.552673,223.321121 
		C605.401611,222.071548 603.368347,220.465302 601.057495,219.681473 
		C597.742371,218.556992 596.079468,216.317993 595.811401,213.144180 
		C595.545349,209.993698 597.446655,207.789612 600.164490,206.451508 
		C607.259949,202.958237 611.533936,196.891800 614.911194,190.132477 
		C625.893738,168.152374 625.242371,145.865906 614.091125,124.522995 
		C596.723511,91.282120 567.419495,75.715233 531.063049,72.490242 
		C514.241882,70.998108 497.639069,73.788185 481.258057,77.791130 
		C477.897766,78.612274 475.719208,79.685341 476.269928,83.599190 
		C476.464539,84.982445 476.037170,86.379898 474.581726,86.902390 
		C473.069824,87.445137 472.036285,86.318573 471.207397,85.301003 
		C469.953217,83.761261 468.902344,82.057961 467.703674,80.470528 
		C464.003021,75.569595 462.049500,69.521103 457.681427,65.074638 
		C453.398590,60.714977 447.639587,61.871159 445.370148,67.461594 
		C443.656677,71.682487 441.675018,72.216980 438.441345,69.038826 
		C435.005615,65.662071 431.525635,62.276314 428.509216,58.536213 
		C414.298676,40.916351 395.740082,35.866459 374.196625,39.605930 
		C366.254303,40.984547 365.862701,41.844589 367.686035,49.264931 
		C368.177856,51.266460 369.011932,53.322231 366.901733,54.670353 
		C364.388336,56.276054 362.954071,54.040180 361.461060,52.574516 
		C355.783478,47.000916 350.121429,41.410988 344.500214,35.780602 
		C336.793304,28.061153 327.176910,24.845942 316.606873,24.413998 
		C298.783508,23.685646 282.741730,29.864439 266.604126,38.226810 
	z"/>
	<path fill="#3E2C24" opacity="1.000000" stroke="none" 
		d="
	M361.821350,442.973083 
		C352.495392,448.669830 343.215790,449.094452 333.552155,444.860565 
		C323.370453,440.399719 313.459076,442.046326 303.309723,445.752075 
		C294.794678,448.861115 285.931793,451.306458 277.020538,452.945190 
		C270.515289,454.141479 264.491119,450.444885 258.498413,448.135223 
		C253.355652,446.153168 248.851318,442.939026 244.397095,439.745361 
		C240.862228,437.210907 237.033157,436.272919 232.719482,436.287445 
		C227.427750,436.305298 222.154739,436.607544 216.837204,435.494354 
		C206.678909,433.367798 202.597992,429.442108 200.595627,419.378723 
		C199.229340,412.511902 198.080185,405.640869 198.805786,398.652771 
		C199.085510,395.958862 199.452988,392.637329 202.904343,391.937561 
		C205.827774,391.344788 206.802567,394.147583 208.592407,395.809998 
		C213.793869,400.640869 219.454803,404.983795 225.006638,409.429321 
		C238.989090,420.625549 253.809265,430.678497 268.319153,441.156586 
		C271.266632,443.285126 273.614014,442.790863 276.787262,441.658752 
		C294.131042,435.470947 311.671448,429.832336 328.997101,423.596161 
		C342.701721,418.663300 356.521698,414.117920 370.506744,410.095673 
		C374.653351,408.903076 379.165985,409.267120 383.401459,409.979187 
		C386.111725,410.434753 386.458191,413.288696 385.948975,415.598358 
		C385.308777,418.502258 384.374481,421.508209 382.256958,423.663544 
		C375.771027,430.265350 370.475922,438.140991 361.821350,442.973083 
	z"/>
	<path fill="#3E2C24" opacity="1.000000" stroke="none" 
		d="
	M230.702545,306.791595 
		C228.528992,299.290192 233.017853,291.531158 239.675491,290.739380 
		C244.352173,290.183197 248.118988,291.476288 250.173889,296.234497 
		C252.241653,301.022461 251.190231,305.827148 246.582550,310.000092 
		C243.139374,313.118439 239.213760,313.239349 235.142883,311.173737 
		C233.324524,310.251099 231.872223,308.963837 230.702545,306.791595 
	z"/>
	<path fill="#3E2C24" opacity="1.000000" stroke="none" 
		d="
	M373.602478,305.543213 
		C378.020630,313.048767 376.939301,318.597321 370.853851,321.252533 
		C366.163513,323.299011 361.685364,321.779633 357.910004,316.860901 
		C355.023987,313.100861 355.001129,308.216614 357.854279,304.943817 
		C361.081818,301.241455 365.442963,300.639557 370.500336,303.277222 
		C371.515167,303.806549 372.402374,304.580505 373.602478,305.543213 
	z"/>
</svg>